<svg xmlns="http://www.w3.org/2000/svg" viewBox="0 0 128 128" width="128" height="128" role="img" aria-labelledby="title desc">
  <title id="title">SHIELD icon</title>
  <desc id="desc">Rounded square with TOTVS-inspired blue palette, central shield and export arrow accent.</desc>
  <defs>
    <linearGradient id="bg" x1="18" y1="14" x2="110" y2="114" gradientUnits="userSpaceOnUse">
      <stop offset="0" stop-color="#002233"/>
      <stop offset="0.56" stop-color="#007799"/>
      <stop offset="1" stop-color="#00B8D4"/>
    </linearGradient>
    <radialGradient id="glow" cx="0" cy="0" r="1" gradientUnits="userSpaceOnUse" gradientTransform="translate(34 28) rotate(28) scale(58 42)">
      <stop offset="0" stop-color="#00DBFF" stop-opacity="0.46"/>
      <stop offset="1" stop-color="#00DBFF" stop-opacity="0"/>
    </radialGradient>
    <linearGradient id="shield" x1="64" y1="24" x2="64" y2="104" gradientUnits="userSpaceOnUse">
      <stop offset="0" stop-color="#F7FBFD"/>
      <stop offset="1" stop-color="#DCECF5"/>
    </linearGradient>
    <linearGradient id="arrow" x1="46" y1="78" x2="90" y2="38" gradientUnits="userSpaceOnUse">
      <stop offset="0" stop-color="#0099BB"/>
      <stop offset="0.72" stop-color="#00DBFF"/>
      <stop offset="1" stop-color="#FFB800"/>
    </linearGradient>
    <filter id="shadow" x="-20%" y="-20%" width="140%" height="140%">
      <feDropShadow dx="0" dy="8" stdDeviation="8" flood-color="#00131D" flood-opacity="0.24"/>
    </filter>
  </defs>

  <rect x="8" y="8" width="112" height="112" rx="28" fill="url(#bg)"/>
  <rect x="8.75" y="8.75" width="110.5" height="110.5" rx="27.25" fill="none" stroke="#C2D4DE" stroke-opacity="0.34" stroke-width="1.5"/>
  <ellipse cx="38" cy="28" rx="38" ry="24" fill="url(#glow)"/>
  <circle cx="98" cy="30" r="10" fill="#FFB800"/>

  <path
    d="M64 24C79.6 24 91.4 30.3 95.4 33.4V54.7C95.4 72.7 83.6 89.6 64 101C44.4 89.6 32.6 72.7 32.6 54.7V33.4C36.6 30.3 48.4 24 64 24Z"
    fill="url(#shield)"
    filter="url(#shadow)"
  />

  <path
    d="M46 80H58.4L79.2 59.2V67.2H90V38H60.8V48.8H68.8L52.8 64.8V56.8H43V77C43 78.7 44.3 80 46 80Z"
    fill="url(#arrow)"
  />
</svg>
